# xmcd
#
# Track frame offsets: 
#        150
#        24969
#        45646
#        61029
#        99554
#        117332
#        138747
#        166797
#        202768
#
# Disc length: 3073 seconds
#
# Revision: 0
# Processed by: cddbd v1.5.2PL0 Copyright (c) Steve Scherf et al.
# Submitted via: ExactAudioCopyFreeDBPlugin 1.0
#
DISCID=6c0bff09
DTITLE=The Jeff Healey Band - Live from NYC
DYEAR=2013
DGENRE=Blues
TTITLE0=The better it gets
TTITLE1=Further on up the road
TTITLE2=My little girl
TTITLE3=Blue Jean blues
TTITLE4=Confidence man
TTITLE5=I need to br loved
TTITLE6=White room
TTITLE7=See to light
TTITLE8=Good morning blues
EXTD=
EXTT0=
EXTT1=
EXTT2=
EXTT3=
EXTT4=
EXTT5=
EXTT6=
EXTT7=
EXTT8=
PLAYORDER=
